<?xml version="1.0" encoding="UTF-8" standalone="no"?>
<!DOCTYPE svg PUBLIC "-//W3C//DTD SVG 1.1//EN" "http://www.w3.org/Graphics/SVG/1.1/DTD/svg11.dtd">
<svg width="100%" height="100%" viewBox="0 0 643 491" version="1.1" xmlns="http://www.w3.org/2000/svg" xmlns:xlink="http://www.w3.org/1999/xlink" xml:space="preserve" xmlns:serif="http://www.serif.com/" style="fill-rule:evenodd;clip-rule:evenodd;stroke-linejoin:round;stroke-miterlimit:2;">
    <g transform="matrix(1,0,0,1,-27.29,-261.71)">
        <path d="M559.73,403.7L347.86,352.67L347.86,752L559.73,696.54L559.73,403.7Z" style="fill:rgb(224,224,224);fill-rule:nonzero;"/>
        <path d="M559.73,403.7L347.86,352.67L347.86,752L559.73,696.54L559.73,403.7Z" style="fill-opacity:0.1;fill-rule:nonzero;"/>
        <path d="M135.99,403.7L347.86,352.67L347.86,752L135.99,697.65L135.99,403.7Z" style="fill:rgb(224,224,224);fill-rule:nonzero;"/>
        <path d="M135.99,401.93L347.86,350.91L347.86,752L135.99,697.65L135.99,401.93Z" style="fill-opacity:0.17;fill-rule:nonzero;"/>
        <path d="M346.09,354.44L457.68,261.71L669.54,316.07L557.96,405.46L346.09,354.44Z" style="fill:rgb(224,224,224);fill-rule:nonzero;"/>
        <path d="M29.05,318.94L137.76,405.46L349.62,354.44L242.03,263.48L29.05,318.94Z" style="fill:rgb(224,224,224);fill-rule:nonzero;"/>
        <path d="M27.29,317.18L138.64,405.46L350.51,354.44L240.26,261.71L27.29,317.18Z" style="fill-opacity:0.05;fill-rule:nonzero;"/>
        <path d="M135.99,403.7L135.99,697.65L347.86,752L350.72,460.27L135.99,403.7Z" style="fill:rgb(224,224,224);fill-rule:nonzero;"/>
        <path d="M559.73,696.54L347.86,752L347.86,460.27L559.73,403.7L559.73,696.54Z" style="fill:rgb(224,224,224);fill-rule:nonzero;"/>
        <path d="M559.73,696.54L347.86,752L347.86,460.27L559.73,403.7L559.73,696.54Z" style="fill-opacity:0.07;fill-rule:nonzero;"/>
        <path d="M475.42,598.92L475.42,695.43L559.73,672.13L559.73,575.63L475.42,598.92Z" style="fill-opacity:0.07;fill-rule:nonzero;"/>
        <path d="M133.22,556.22L251.91,586.17L347.31,508.52L347.31,460.82L135.44,407.58L133.22,556.22Z" style="fill-opacity:0.1;fill-rule:nonzero;"/>
        <path d="M561.39,556.22L442.7,586.17L347.31,508.52L347.31,460.82L559.17,407.58L561.39,556.22Z" style="fill-opacity:0.1;fill-rule:nonzero;"/>
        <path d="M135.99,403.7L27.29,493.55L239.15,546.79L347.86,460.27L135.99,403.7Z" style="fill:rgb(224,224,224);fill-rule:nonzero;"/>
        <path d="M559.73,403.7L669.54,493.55L458.78,546.79L347.86,460.27L559.73,403.7Z" style="fill:rgb(224,224,224);fill-rule:nonzero;"/>
        <path d="M559.73,403.7L669.54,493.55L458.78,546.79L347.86,460.27L559.73,403.7Z" style="fill-opacity:0.07;fill-rule:nonzero;"/>
    </g>
</svg>
