<svg width="88" height="88" viewBox="0 0 88 88" fill="none" xmlns="http://www.w3.org/2000/svg">
<rect width="88" height="88" fill="white"/>
<path d="M4 36.6104V85.6322C4 86.1705 4.1809 86.6694 4.48594 87.0682L83.5123 87.07C83.8173 86.6694 84 86.1705 84 85.6304V36.6104H4Z" fill="#DCD4FF"/>
<path d="M84 36.6104V85.6322C84 86.1705 83.8191 86.6712 83.5123 87.07H44V36.6104H84Z" fill="#CCC5FC"/>
<path d="M44.0508 56.4766L4.48535 87.0678C4.91454 87.6312 5.58493 87.9942 6.344 87.9942H81.6566C82.4139 87.9942 83.0843 87.6312 83.5135 87.0696L44.0508 56.4766Z" fill="#C3B0FF"/>
<path d="M83.5115 87.0707C83.0841 87.634 82.4119 87.9953 81.6546 87.9953L54.3495 88.0006L47.1934 58.291L83.5115 87.0707Z" fill="#B5A4FF"/>
<path d="M84 31.2763V36.6109L44.9311 65.8716C44.3778 66.2865 43.6205 66.2865 43.0671 65.8716L4 36.6109V31.2763C4 29.9708 5.04992 28.9121 6.3446 28.9121H81.6572C82.9501 28.9139 84 29.9708 84 31.2763Z" fill="#9077FC"/>
<path d="M51.7474 41.8701V42.7375C51.7474 47.0438 48.2713 50.5489 44.0007 50.5489C39.73 50.5489 36.2539 47.0438 36.2539 42.7375V41.8701H51.7474Z" fill="#E9F3FB"/>
<path d="M43.8633 41.8701H51.7466V42.7375C51.7466 45.0337 50.7109 49.1004 45.8957 50.3111L43.8633 41.8701Z" fill="#D6E9F8"/>
<path d="M62.0825 37.5294C60.6584 37.5294 59.5003 36.3616 59.5003 34.9256V21.742C59.5003 14.0092 53.903 7.573 46.5802 6.32832V3.50811C46.5802 2.07029 45.4238 0.904297 43.9979 0.904297C42.572 0.904297 41.4157 2.07029 41.4157 3.50811V6.33011C34.0928 7.573 28.4955 14.011 28.4955 21.7438V34.9274C28.4955 36.3634 27.3374 37.5312 25.9133 37.5312C24.4874 37.5312 23.3311 38.6972 23.3311 40.135C23.3311 41.5728 24.4874 42.7388 25.9133 42.7388H62.0825C63.5084 42.7388 64.6648 41.5728 64.6648 40.135C64.6648 38.6972 63.5102 37.5294 62.0825 37.5294Z" fill="#FF315C"/>
<path d="M44.1228 42.737H62.0832C63.5091 42.737 64.6655 41.5711 64.6655 40.1332C64.6655 38.6954 63.5091 37.5294 62.0832 37.5294C60.6591 37.5294 59.501 36.3616 59.501 34.9256V21.742C59.501 14.0092 53.9037 7.573 46.5809 6.32832V3.50811C46.5809 2.07029 45.4245 0.904297 43.9986 0.904297C42.5727 0.904297 41.4164 2.07029 41.4164 3.50811V6.33011C40.1856 6.53934 37.504 7.27793 35.8174 8.47253L44.1228 42.737Z" fill="#E81C4D"/>
<path d="M60.3997 6.4161L62.3542 4.44536C63.3633 3.42779 63.3633 1.78074 62.3542 0.763172C61.3468 -0.254391 59.7116 -0.254391 58.7025 0.763172L56.7481 2.73392C55.7389 3.75148 55.7389 5.39854 56.7481 6.4161C57.7554 7.43366 59.3906 7.43366 60.3997 6.4161Z" fill="#E81C4D"/>
<path d="M64.6526 18.777H67.4157C68.8416 18.777 69.9979 17.611 69.9979 16.1732C69.9979 14.7353 68.8416 13.5693 67.4157 13.5693H64.6526C63.2266 13.5693 62.0703 14.7353 62.0703 16.1732C62.0703 17.611 63.2266 18.777 64.6526 18.777Z" fill="#E81C4D"/>
<path d="M29.5817 6.4161C30.5908 5.39854 30.5908 3.75148 29.5817 2.73392L27.6273 0.763172C26.6181 -0.254391 24.983 -0.254391 23.9756 0.763172C22.9665 1.78074 22.9665 3.42779 23.9756 4.44536L25.93 6.4161C26.9374 7.43366 28.5726 7.43366 29.5817 6.4161Z" fill="#E81C4D"/>
<path d="M24.2569 16.1732C24.2569 14.7353 23.1006 13.5693 21.6747 13.5693H18.9133C17.4874 13.5693 16.3311 14.7353 16.3311 16.1732C16.3311 17.611 17.4874 18.777 18.9133 18.777H21.6764C23.1024 18.777 24.2587 17.611 24.2569 16.1732Z" fill="#E81C4D"/>
</svg>
